<svg width="134" height="134" viewBox="0 0 134 134" fill="none" xmlns="http://www.w3.org/2000/svg">
<path d="M134 67C134 104.003 104.003 134 67 134C29.9969 134 0 104.003 0 67C0 29.9969 29.9969 0 67 0C104.003 0 134 29.9969 134 67ZM6.13326 67C6.13326 100.616 33.3842 127.867 67 127.867C100.616 127.867 127.867 100.616 127.867 67C127.867 33.3842 100.616 6.13326 67 6.13326C33.3842 6.13326 6.13326 33.3842 6.13326 67Z" fill="#EEEEEE"/>
<path d="M27.2084 33.726C23.3632 35.6675 21.9419 40.2272 23.3455 44.2375C24.1426 46.515 28.0603 45.2746 29.4107 44.3262C31.206 43.0654 32.8322 40.1991 33.0384 37.9945C33.3846 34.2927 29.5136 32.651 26.6066 34.0066" stroke="#EEEEEE" stroke-width="5" stroke-linecap="round"/>
<path d="M22.0242 62.1422C22.0508 60.9181 22.2996 59.7288 22.3575 58.5144C23.5 51.5 28 59.6918 29 62.1418C31.0167 67.0827 33.5 71.5 35.5 76.5C38 81.5191 38.7774 83.5549 40.5 87C42.2893 90.5786 43.9855 93.6652 46 97C46 97 47.1717 99.2175 47.7998 100.344C48.4366 101.486 49.0289 102.662 49.5994 103.838C50.507 105.71 50.9616 108.786 50.2564 110.789C49.7834 112.132 47.8663 111.7 46.6952 111.627C43.7553 111.443 41.1356 109.85 38.8873 108.085C37.2774 106.821 36.0157 104.934 34.6977 103.381C32.7757 101.116 31.0274 98.6921 29.4988 96.1446C27.9158 93.5062 26.6276 90.7387 25.6234 87.832C24.9051 85.7525 24.5275 83.6186 23.9 81.5191C22.6499 77.336 22.0147 73.1691 22.0147 68.7979C22.0147 66.5805 21.976 64.3591 22.0242 62.1422Z" stroke="#EEEEEE" stroke-width="5" stroke-linecap="round"/>
</svg>
