<svg width="140" height="97" viewBox="0 0 140 97" fill="none" xmlns="http://www.w3.org/2000/svg">
<path d="M105.924 28.2046L4 48V8L105.924 28.2046Z" fill="url(#paint0_linear_20103_49)"/>
<g filter="url(#filter0_d_20103_49)">
<path d="M4.88721 87.5909V62.5664H20.1522V65.6409H8.28339V72.9695H17.7212V76.0439H8.28339V84.5165H20.4739V87.5909H4.88721ZM31.4878 87.9484C29.5097 87.9484 27.8473 87.5493 26.5008 86.7508C25.1661 85.9405 24.1532 84.8561 23.4621 83.4976C22.7829 82.1272 22.4431 80.6079 22.4431 78.9396C22.4431 77.1998 22.7709 75.6328 23.4264 74.2386C24.0936 72.8443 25.1125 71.742 26.4829 70.9317C27.8532 70.1215 29.605 69.7163 31.7381 69.7163C32.6556 69.7163 33.5195 69.8116 34.3299 70.0023C35.1521 70.181 35.885 70.4313 36.5285 70.753L36.028 73.5772C35.3725 73.2674 34.6754 73.0231 33.9367 72.8443C33.2097 72.6656 32.4531 72.5762 31.6666 72.5762C29.7361 72.5762 28.2644 73.1244 27.2515 74.2207C26.2386 75.317 25.7322 76.8423 25.7322 78.7966C25.7322 80.7033 26.2148 82.2345 27.18 83.3904C28.1453 84.5463 29.6169 85.1242 31.5951 85.1242C32.4054 85.1242 33.1799 85.0289 33.9188 84.8382C34.6695 84.6475 35.3845 84.3854 36.0637 84.0518L36.4927 86.6257C36.016 86.9594 35.3189 87.2633 34.4014 87.5373C33.4838 87.8114 32.5126 87.9484 31.4878 87.9484ZM47.084 87.9484C45.2489 87.9484 43.6818 87.5432 42.383 86.733C41.096 85.9107 40.1069 84.8144 39.4158 83.444C38.7366 82.0617 38.3969 80.5245 38.3969 78.8324C38.3969 77.1402 38.7366 75.609 39.4158 74.2386C40.1069 72.8563 41.096 71.7599 42.383 70.9496C43.6818 70.1274 45.2489 69.7163 47.084 69.7163C48.9072 69.7163 50.4683 70.1274 51.7672 70.9496C53.066 71.7599 54.0551 72.8563 54.7344 74.2386C55.4255 75.609 55.7711 77.1402 55.7711 78.8324C55.7711 80.5245 55.4255 82.0617 54.7344 83.444C54.0551 84.8144 53.066 85.9107 51.7672 86.733C50.4683 87.5432 48.9072 87.9484 47.084 87.9484ZM47.084 85.0885C48.8238 85.0885 50.1585 84.5403 51.088 83.444C52.0174 82.3358 52.4822 80.7986 52.4822 78.8324C52.4822 76.8661 52.0174 75.3348 51.088 74.2386C50.1585 73.1303 48.8238 72.5762 47.084 72.5762C45.3561 72.5762 44.0214 73.1303 43.0801 74.2386C42.1506 75.3348 41.6859 76.8661 41.6859 78.8324C41.6859 80.7986 42.1506 82.3358 43.0801 83.444C44.0214 84.5403 45.3561 85.0885 47.084 85.0885Z" fill="#2C772B"/>
</g>
<g filter="url(#filter1_d_20103_49)">
<path d="M61.4814 87.5904V62.4542H71.0646C74.0788 62.4542 76.5399 62.9488 78.4481 63.9379C80.3685 64.9154 81.7828 66.3352 82.69 68.1971C83.6094 70.0591 84.0697 72.3108 84.0697 74.9525C84.0697 77.7338 83.5747 80.0612 82.5849 81.9348C81.6074 83.8084 80.1473 85.2223 78.2045 86.1766C76.2607 87.1191 73.8521 87.5904 70.9774 87.5904H61.4814ZM66.8752 83.0345H70.4012C75.7423 83.0345 78.4134 80.3637 78.4134 75.0223C78.4134 73.335 78.1286 71.8977 77.5577 70.7107C76.9991 69.5121 76.1389 68.5986 74.9748 67.9702C73.8107 67.3302 72.3214 67.0101 70.506 67.0101H66.8752V83.0345ZM87.8043 87.5904V68.7383H93.007V87.5904H87.8043ZM90.4051 66.4865C89.3695 66.4865 88.5383 66.1722 87.9094 65.5438C87.2804 64.9154 86.9665 64.0834 86.9665 63.0476C86.9665 62.0004 87.2804 61.1683 87.9094 60.5516C88.5383 59.9231 89.3695 59.6089 90.4051 59.6089C91.453 59.6089 92.2853 59.9231 92.902 60.5516C93.5298 61.1683 93.8449 62.0004 93.8449 63.0476C93.8449 64.0834 93.5298 64.9154 92.902 65.5438C92.2853 66.1722 91.453 66.4865 90.4051 66.4865ZM102.782 87.5904L95.6424 68.7383H101.455L106.116 83.8898H105.644L110.287 68.7383H116.083L108.978 87.5904H102.782ZM126.958 88.0442C125.108 88.0442 123.443 87.6428 121.965 86.8398C120.499 86.0369 119.335 84.8964 118.474 83.4185C117.625 81.929 117.2 80.1718 117.2 78.1469C117.2 76.1337 117.619 74.3881 118.457 72.9102C119.306 71.4323 120.458 70.2918 121.913 69.4889C123.379 68.6859 125.05 68.2845 126.923 68.2845C127.959 68.2845 129.005 68.4415 130.064 68.7557C131.136 69.0699 132.119 69.6285 133.015 70.4314C133.911 71.2228 134.633 72.3342 135.18 73.7655C135.726 75.1852 136 77.0006 136 79.2117H120.534V76.2443H131.357L130.815 77.1694C130.723 75.9126 130.49 74.9001 130.117 74.1321C129.745 73.364 129.274 72.8054 128.704 72.4563C128.133 72.1072 127.493 71.9327 126.783 71.9327C125.864 71.9327 125.095 72.1945 124.479 72.7182C123.862 73.2418 123.397 73.975 123.082 74.9175C122.781 75.8486 122.629 76.9308 122.629 78.1644C122.629 80.0263 122.978 81.4984 123.677 82.5806C124.386 83.6629 125.468 84.2041 126.923 84.2041C127.866 84.2041 128.675 83.9597 129.35 83.4709C130.035 82.9821 130.559 82.2373 130.92 81.2366L135.634 82.441C135.191 83.7444 134.522 84.8091 133.626 85.6354C132.73 86.4617 131.7 87.0726 130.536 87.4682C129.384 87.8523 128.191 88.0442 126.958 88.0442Z" fill="#1F5371"/>
</g>
<path fill-rule="evenodd" clip-rule="evenodd" d="M88.8558 63.0606C88.8267 62.9561 88.8099 62.8453 88.8099 62.7309C88.8099 62.0841 89.3216 61.5597 89.9517 61.5597C90.0668 61.5597 90.1785 61.5771 90.2835 61.6098C90.2511 61.5002 90.2031 61.3956 90.1405 61.2994C90.0143 61.1067 89.8366 60.9567 89.6277 60.868C89.4188 60.7794 89.1898 60.7561 88.9686 60.8013C88.7463 60.8465 88.5429 60.9581 88.3832 61.1219C88.2234 61.2857 88.1151 61.4944 88.0715 61.7216C88.0268 61.9488 88.0492 62.1843 88.1363 62.3984C88.2223 62.6123 88.3687 62.7953 88.5564 62.924C88.6413 62.982 88.7496 63.0278 88.8558 63.0606Z" fill="white"/>
<path d="M125.774 28.0583C125.774 30.0936 107.76 44.2472 94.7778 44.2472C74.5861 44.2472 65.0431 34.4877 64.5886 27.8966C65.0431 20.4264 75.9502 11.1987 94.7778 11.1987C106.852 11.1987 125.774 25.2601 125.774 28.0583Z" fill="#1F5371"/>
<path d="M135.742 17.9201C126.346 19.0509 127.47 26.0088 126.075 25.5696C122.768 22.1602 120.287 20.5656 120.287 20.5656C119.431 19.3868 122.978 16.8685 125.493 15.9041C128.009 14.9396 136.994 15.5121 135.742 17.9201Z" fill="#1F5371"/>
<path d="M135.777 38.1794C126.431 36.715 127.818 29.8018 126.408 30.1911C122.973 33.4805 120.434 34.9858 120.434 34.9858C119.532 36.1332 122.982 38.7761 125.459 39.8294C127.936 40.8827 136.937 40.6304 135.777 38.1794Z" fill="#1F5371"/>
<path d="M104.995 43.8403C102.8 49.1977 108.906 51.942 100.05 51.6735C92.1431 51.4339 86.7517 49.7997 84.1487 45.0534C84.3967 44.061 87.9672 46.0706 95.3114 45.5288C102.655 44.9871 104.918 42.8717 104.995 43.8403Z" fill="#1F5371"/>
<path d="M107.283 8.5557C110.142 14.8827 105.593 12.2593 99.8349 10.6507C96.3393 9.67402 88.6141 9.73985 85.5586 10.837C82.6763 9.15493 93.8447 1.29491 104.748 0.140641C115.652 -1.01363 105.775 5.2183 107.283 8.5557Z" fill="#1F5371"/>
<defs>
<filter id="filter0_d_20103_49" x="0.887207" y="62.5664" width="58.8838" height="33.3818" filterUnits="userSpaceOnUse" color-interpolation-filters="sRGB">
<feFlood flood-opacity="0" result="BackgroundImageFix"/>
<feColorMatrix in="SourceAlpha" type="matrix" values="0 0 0 0 0 0 0 0 0 0 0 0 0 0 0 0 0 0 127 0" result="hardAlpha"/>
<feOffset dy="4"/>
<feGaussianBlur stdDeviation="2"/>
<feComposite in2="hardAlpha" operator="out"/>
<feColorMatrix type="matrix" values="0 0 0 0 0 0 0 0 0 0 0 0 0 0 0 0 0 0 0.25 0"/>
<feBlend mode="normal" in2="BackgroundImageFix" result="effect1_dropShadow_20103_49"/>
<feBlend mode="normal" in="SourceGraphic" in2="effect1_dropShadow_20103_49" result="shape"/>
</filter>
<filter id="filter1_d_20103_49" x="57.4814" y="59.6089" width="82.5186" height="36.4355" filterUnits="userSpaceOnUse" color-interpolation-filters="sRGB">
<feFlood flood-opacity="0" result="BackgroundImageFix"/>
<feColorMatrix in="SourceAlpha" type="matrix" values="0 0 0 0 0 0 0 0 0 0 0 0 0 0 0 0 0 0 127 0" result="hardAlpha"/>
<feOffset dy="4"/>
<feGaussianBlur stdDeviation="2"/>
<feComposite in2="hardAlpha" operator="out"/>
<feColorMatrix type="matrix" values="0 0 0 0 0 0 0 0 0 0 0 0 0 0 0 0 0 0 0.25 0"/>
<feBlend mode="normal" in2="BackgroundImageFix" result="effect1_dropShadow_20103_49"/>
<feBlend mode="normal" in="SourceGraphic" in2="effect1_dropShadow_20103_49" result="shape"/>
</filter>
<linearGradient id="paint0_linear_20103_49" x1="-8" y1="28" x2="105.924" y2="28.447" gradientUnits="userSpaceOnUse">
<stop offset="0.101956" stop-color="#3D7D27" stop-opacity="0"/>
<stop offset="0.589" stop-color="#2C772B"/>
<stop offset="0.884" stop-color="#2C772B"/>
</linearGradient>
</defs>
</svg>
