<svg width="125" height="77" viewBox="0 0 125 77" fill="none" xmlns="http://www.w3.org/2000/svg">
<path d="M97.5 23.6934L0 42.1305V5.25635L97.5 23.6934Z" fill="#598E4B"/>
<path d="M97.5 23.6934L0 42.1305V5.25635L97.5 23.6934Z" fill="url(#paint0_linear_19949_262)"/>
<path d="M113.268 25.1157C113.268 26.9376 97.5 39.6068 85.523 39.6068C67.4492 39.6068 58.9068 30.8709 58.5 24.971C58.9068 18.2843 68.67 10.0244 85.523 10.0244C96.331 10.0244 113.268 22.611 113.268 25.1157Z" fill="#174D9C"/>
<path d="M122.191 16.0409C113.781 17.0531 114.787 23.2813 113.538 22.8881C110.578 19.8363 108.357 18.4089 108.357 18.4089C107.591 17.3538 110.766 15.0996 113.017 14.2363C115.269 13.373 123.312 13.8854 122.191 16.0409Z" fill="#174D9C"/>
<path d="M122.222 34.1754C113.856 32.8646 115.098 26.6764 113.836 27.0249C110.761 29.9693 108.488 31.3167 108.488 31.3167C107.681 32.3438 110.769 34.7095 112.986 35.6523C115.203 36.5952 123.26 36.3693 122.222 34.1754Z" fill="#174D9C"/>
<path d="M94.669 39.2423C92.704 44.0378 98.17 46.4943 90.243 46.254C83.165 46.0395 78.339 44.5767 76.009 40.3282C76.231 39.4398 79.427 41.2387 86.001 40.7537C92.574 40.2688 94.6 38.3753 94.669 39.2423Z" fill="#174D9C"/>
<path d="M96.717 7.6584C99.276 13.3218 95.204 10.9736 90.05 9.5337C86.921 8.6594 80.006 8.7184 77.271 9.7004C74.691 8.1948 84.688 1.1591 94.448 0.125891C104.208 -0.907319 95.367 4.671 96.717 7.6584Z" fill="#174D9C"/>
<path d="M0.380005 76.4041V51.2041H15.752V54.3001H3.8V61.6801H13.304V64.7761H3.8V73.3081H16.076V76.4041H0.380005ZM27.1671 76.7641C25.1751 76.7641 23.5011 76.3621 22.1451 75.5581C20.8011 74.7421 19.7811 73.6501 19.0851 72.2821C18.4011 70.9021 18.0591 69.3721 18.0591 67.6921C18.0591 65.9401 18.3891 64.3621 19.0491 62.9581C19.7211 61.5541 20.7471 60.4441 22.1271 59.6281C23.5071 58.8121 25.2711 58.4041 27.4191 58.4041C28.3431 58.4041 29.2131 58.5001 30.0291 58.6921C30.8571 58.8721 31.5951 59.1241 32.2431 59.4481L31.7391 62.2921C31.0791 61.9801 30.3771 61.7341 29.6331 61.5541C28.9011 61.3741 28.1391 61.2841 27.3471 61.2841C25.4031 61.2841 23.9211 61.8361 22.9011 62.9401C21.8811 64.0441 21.3711 65.5801 21.3711 67.5481C21.3711 69.4681 21.8571 71.0101 22.8291 72.1741C23.8011 73.3381 25.2831 73.9201 27.2751 73.9201C28.0911 73.9201 28.8711 73.8241 29.6151 73.6321C30.3711 73.4401 31.0911 73.1761 31.7751 72.8401L32.2071 75.4321C31.7271 75.7681 31.0251 76.0741 30.1011 76.3501C29.1771 76.6261 28.1991 76.7641 27.1671 76.7641ZM42.8727 76.7641C41.0247 76.7641 39.4467 76.3561 38.1387 75.5401C36.8427 74.7121 35.8467 73.6081 35.1507 72.2281C34.4667 70.8361 34.1247 69.2881 34.1247 67.5841C34.1247 65.8801 34.4667 64.3381 35.1507 62.9581C35.8467 61.5661 36.8427 60.4621 38.1387 59.6461C39.4467 58.8181 41.0247 58.4041 42.8727 58.4041C44.7087 58.4041 46.2807 58.8181 47.5887 59.6461C48.8967 60.4621 49.8927 61.5661 50.5767 62.9581C51.2727 64.3381 51.6207 65.8801 51.6207 67.5841C51.6207 69.2881 51.2727 70.8361 50.5767 72.2281C49.8927 73.6081 48.8967 74.7121 47.5887 75.5401C46.2807 76.3561 44.7087 76.7641 42.8727 76.7641ZM42.8727 73.8841C44.6247 73.8841 45.9687 73.3321 46.9047 72.2281C47.8407 71.1121 48.3087 69.5641 48.3087 67.5841C48.3087 65.6041 47.8407 64.0621 46.9047 62.9581C45.9687 61.8421 44.6247 61.2841 42.8727 61.2841C41.1327 61.2841 39.7887 61.8421 38.8407 62.9581C37.9047 64.0621 37.4367 65.6041 37.4367 67.5841C37.4367 69.5641 37.9047 71.1121 38.8407 72.2281C39.7887 73.3321 41.1327 73.8841 42.8727 73.8841Z" fill="#598E4B"/>
<path d="M57.7188 76.4043V53.9043H66.2969C68.995 53.9043 71.198 54.347 72.906 55.2324C74.625 56.1074 75.891 57.3783 76.703 59.0449C77.526 60.7116 77.938 62.7272 77.938 65.0918C77.938 67.5814 77.495 69.6647 76.609 71.3418C75.734 73.0189 74.427 74.2845 72.688 75.1387C70.948 75.9824 68.792 76.4043 66.2188 76.4043H57.7188ZM62.5469 72.3262H65.7031C70.484 72.3262 72.875 69.9355 72.875 65.1543C72.875 63.6439 72.62 62.3574 72.109 61.2949C71.609 60.222 70.839 59.4043 69.797 58.8418C68.755 58.2689 67.4219 57.9824 65.7969 57.9824H62.5469V72.3262ZM81.281 76.4043V59.5293H85.938V76.4043H81.281ZM83.609 57.5137C82.682 57.5137 81.938 57.2324 81.375 56.6699C80.812 56.1074 80.531 55.3626 80.531 54.4355C80.531 53.4981 80.812 52.7533 81.375 52.2012C81.938 51.6387 82.682 51.3574 83.609 51.3574C84.547 51.3574 85.292 51.6387 85.844 52.2012C86.406 52.7533 86.688 53.4981 86.688 54.4355C86.688 55.3626 86.406 56.1074 85.844 56.6699C85.292 57.2324 84.547 57.5137 83.609 57.5137ZM94.688 76.4043L88.297 59.5293H93.5L97.672 73.0918H97.25L101.406 59.5293H106.594L100.234 76.4043H94.688ZM116.328 76.8105C114.672 76.8105 113.182 76.4512 111.859 75.7324C110.547 75.0137 109.505 73.9928 108.734 72.6699C107.974 71.3366 107.594 69.7637 107.594 67.9512C107.594 66.1491 107.969 64.5866 108.719 63.2637C109.479 61.9408 110.51 60.9199 111.812 60.2012C113.125 59.4824 114.62 59.1231 116.297 59.1231C117.224 59.1231 118.161 59.2637 119.109 59.5449C120.068 59.8262 120.948 60.3262 121.75 61.0449C122.552 61.7533 123.198 62.7481 123.688 64.0293C124.177 65.3001 124.422 66.9251 124.422 68.9043H110.578V66.2481H120.266L119.781 67.0762C119.698 65.9512 119.49 65.0449 119.156 64.3574C118.823 63.6699 118.401 63.1699 117.891 62.8574C117.38 62.5449 116.807 62.3887 116.172 62.3887C115.349 62.3887 114.661 62.6231 114.109 63.0918C113.557 63.5605 113.141 64.2168 112.859 65.0605C112.589 65.8939 112.453 66.8626 112.453 67.9668C112.453 69.6335 112.766 70.9512 113.391 71.9199C114.026 72.8887 114.995 73.3731 116.297 73.3731C117.141 73.3731 117.865 73.1543 118.469 72.7168C119.083 72.2793 119.552 71.6126 119.875 70.7168L124.094 71.7949C123.698 72.9616 123.099 73.9147 122.297 74.6543C121.495 75.3939 120.573 75.9408 119.531 76.2949C118.5 76.6387 117.432 76.8105 116.328 76.8105Z" fill="#174D9C"/>
<defs>
<linearGradient id="paint0_linear_19949_262" x1="84.666" y1="2.40415" x2="-15.9395" y2="2.40415" gradientUnits="userSpaceOnUse">
<stop offset="0.24327" stop-color="white"/>
<stop offset="0.639391" stop-color="#999999" stop-opacity="0"/>
</linearGradient>
</defs>
</svg>
